<?xml version="1.0" standalone="no"?>
<!DOCTYPE svg PUBLIC "-//W3C//DTD SVG 20010904//EN"
 "http://www.w3.org/TR/2001/REC-SVG-20010904/DTD/svg10.dtd">
<svg version="1.0" xmlns="http://www.w3.org/2000/svg"
 width="512.000000pt" height="512.000000pt" viewBox="0 0 512.000000 512.000000"
 preserveAspectRatio="xMidYMid meet">
<metadata>
Created by potrace 1.14, written by Peter Selinger 2001-2017
</metadata>
<g transform="translate(0.000000,512.000000) scale(0.100000,-0.100000)"
fill="#000000" stroke="none">
<path d="M943 5105 c-182 -49 -320 -189 -368 -372 -11 -43 -15 -119 -15 -313
l0 -255 -88 -122 c-231 -324 -385 -703 -447 -1103 -23 -144 -31 -476 -16 -626
80 -783 501 -1475 1161 -1906 172 -113 457 -242 665 -303 254 -74 437 -99 720
-99 426 -1 769 78 1144 265 268 133 475 284 686 501 174 179 228 244 330 403
577 895 535 2077 -105 2923 -43 55 -50 72 -50 109 0 38 -6 51 -34 79 l-34 34
-276 0 -276 0 0 115 0 115 260 0 260 0 0 69 0 68 -342 5 c-189 3 -929 3 -1645
0 -1115 -4 -1303 -3 -1303 9 1 34 41 98 89 141 94 85 -49 78 1694 78 l1549 0
29 29 c41 41 41 101 0 142 l-29 29 -1754 -1 c-1474 0 -1761 -3 -1805 -14z
m2197 -670 l0 -115 -868 0 c-977 0 -922 -4 -1011 76 -45 40 -91 112 -91 142 0
9 233 12 985 12 l985 0 0 -115z m-586 -1137 c18 -17 80 -171 240 -596 119
-316 216 -585 216 -598 0 -28 -32 -63 -57 -65 -59 -4 -74 14 -127 151 l-44
115 -295 3 -294 2 -38 -102 c-21 -57 -44 -115 -51 -129 -16 -31 -60 -50 -91
-38 -31 11 -56 54 -49 82 20 80 438 1153 457 1173 31 33 98 33 133 2z m1389
-409 c16 -19 17 -54 17 -410 l0 -388 -22 -25 c-52 -57 -128 -25 -128 53 l0 39
-72 -37 c-70 -35 -77 -36 -178 -36 -95 0 -111 3 -162 28 -88 43 -152 107 -195
195 -36 71 -38 81 -37 166 0 70 6 105 23 149 32 82 121 175 203 213 57 26 73
29 169 29 101 0 108 -2 177 -36 l72 -35 0 38 c0 54 38 93 83 84 18 -3 40 -16
50 -27z m48 -1268 c36 -44 21 -102 -32 -120 -45 -16 -1953 -16 -1998 0 -17 6
-36 19 -41 29 -23 44 0 105 43 113 12 2 469 4 1015 3 l994 -1 19 -24z m-382
-495 c29 -26 29 -86 0 -112 -20 -18 -46 -19 -649 -19 -603 0 -629 1 -649 19
-40 36 -24 109 29 129 8 3 292 5 631 4 591 -2 618 -3 638 -21z"/>
<path d="M2371 2778 c-62 -164 -111 -301 -109 -304 3 -2 107 -3 231 -2 l225 3
-112 297 c-62 164 -114 300 -117 302 -2 2 -55 -131 -118 -296z"/>
<path d="M3464 2706 c-159 -69 -201 -279 -80 -400 143 -143 378 -72 417 125
21 108 -35 220 -135 268 -50 25 -153 28 -202 7z"/>
</g>
</svg>
